<?xml version="1.0" encoding="UTF-8" standalone="no"?><!DOCTYPE svg PUBLIC "-//W3C//DTD SVG 1.1//EN" "http://www.w3.org/Graphics/SVG/1.1/DTD/svg11.dtd"><!-- Generated by graphviz version 2.40.1 (20161225.0304)
 --><!-- Title: G Pages: 1 --><svg xmlns="http://www.w3.org/2000/svg" xmlns:xlink="http://www.w3.org/1999/xlink" width="1156pt" height="1037pt" viewBox="0.00 0.00 1156.39 1036.86">
<g id="graph0" class="graph" transform="scale(1 1) rotate(0) translate(4 1032.8626)">
<title>G</title>
<polygon fill="#ffffff" stroke="transparent" points="-4,4 -4,-1032.8626 1152.3866,-1032.8626 1152.3866,4 -4,4"/>
<!-- Query -->
<g id="node1" class="node">
<title>Query</title>
<ellipse fill="none" stroke="#000000" cx="564.3612" cy="-1010.8626" rx="35.3334" ry="18"/>
<text text-anchor="middle" x="564.3612" y="-1006.6626" font-family="Times,serif" font-size="14.00" fill="#000000">Query</text>
</g>
<!-- generate FROM -->
<g id="node2" class="node">
<title>generate FROM</title>
<ellipse fill="none" stroke="#000000" cx="564.3612" cy="-936.0626" rx="73.5339" ry="18"/>
<text text-anchor="middle" x="564.3612" y="-931.8626" font-family="Times,serif" font-size="14.00" fill="#000000">generate FROM</text>
</g>
<!-- Query&#45;&gt;generate FROM -->
<g id="edge1" class="edge">
<title>Query-&gt;generate FROM</title>
<path fill="none" stroke="#000000" d="M564.3612,-992.7556C564.3612,-984.2737 564.3612,-973.9688 564.3612,-964.483"/>
<polygon fill="#000000" stroke="#000000" points="567.8612,-964.262 564.3612,-954.2621 560.8612,-964.2621 567.8612,-964.262"/>
</g>
<!-- table -->
<g id="node3" class="node">
<title>table</title>
<ellipse fill="none" stroke="#000000" cx="569.3612" cy="-861.2626" rx="29.6127" ry="18"/>
<text text-anchor="middle" x="569.3612" y="-857.0626" font-family="Times,serif" font-size="14.00" fill="#000000">table</text>
</g>
<!-- generate FROM&#45;&gt;table -->
<g id="edge2" class="edge">
<title>generate FROM-&gt;table</title>
<path fill="none" stroke="#000000" d="M565.5715,-917.9556C566.1385,-909.4737 566.8273,-899.1688 567.4614,-889.683"/>
<polygon fill="#000000" stroke="#000000" points="570.9698,-889.6733 568.1446,-879.4621 563.9853,-889.2063 570.9698,-889.6733"/>
</g>
<!-- from&#45;subquery -->
<g id="node4" class="node">
<title>from-subquery</title>
<polygon fill="none" stroke="#000000" points="565.0535,-729.6626 465.6688,-729.6626 465.6688,-693.6626 565.0535,-693.6626 565.0535,-729.6626"/>
<text text-anchor="middle" x="515.3612" y="-707.4626" font-family="Times,serif" font-size="14.00" fill="#000000">from-subquery</text>
</g>
<!-- generate FROM&#45;&gt;from&#45;subquery -->
<g id="edge3" class="edge">
<title>generate FROM-&gt;from-subquery</title>
<path fill="none" stroke="#000000" d="M547.5528,-918.2235C526.8211,-894.8683 492.6888,-851.6544 479.3612,-807.2626 474.0447,-789.5545 474.0034,-783.3581 479.3612,-765.6626 482.3176,-755.8981 487.6864,-746.2854 493.3911,-737.9388"/>
<polygon fill="#000000" stroke="#000000" points="496.3026,-739.8865 499.3707,-729.7456 490.6483,-735.7599 496.3026,-739.8865"/>
</g>
<!-- relation with joins -->
<g id="node5" class="node">
<title>relation with joins</title>
<ellipse fill="none" stroke="#000000" cx="569.3612" cy="-786.4626" rx="81.1168" ry="18"/>
<text text-anchor="middle" x="569.3612" y="-782.2626" font-family="Times,serif" font-size="14.00" fill="#000000">relation with joins</text>
</g>
<!-- table&#45;&gt;relation with joins -->
<g id="edge5" class="edge">
<title>table-&gt;relation with joins</title>
<path fill="none" stroke="#000000" d="M563.5212,-843.536C562.6399,-834.9064 562.3987,-824.3233 562.7976,-814.6245"/>
<polygon fill="#000000" stroke="#000000" points="566.2939,-814.7963 563.4817,-804.5815 559.3101,-814.3205 566.2939,-814.7963"/>
</g>
<!-- from&#45;subquery&#45;&gt;relation with joins -->
<g id="edge7" class="edge">
<title>from-subquery-&gt;relation with joins</title>
<path fill="none" stroke="#000000" d="M534.3872,-729.8621C541.7327,-738.8139 549.8541,-749.7794 556.5195,-759.6669"/>
<polygon fill="#000000" stroke="#000000" points="553.7828,-761.8788 562.1675,-768.3556 559.6518,-758.0637 553.7828,-761.8788"/>
</g>
<!-- relation with joins&#45;&gt;table -->
<g id="edge4" class="edge">
<title>relation with joins-&gt;table</title>
<path fill="none" stroke="#000000" d="M575.2406,-804.5815C576.1026,-813.2694 576.3244,-823.868 575.9062,-833.5396"/>
<polygon fill="#000000" stroke="#000000" points="572.4134,-833.3145 575.2011,-843.536 579.3961,-833.8071 572.4134,-833.3145"/>
</g>
<!-- relation with joins&#45;&gt;from&#45;subquery -->
<g id="edge6" class="edge">
<title>relation with joins-&gt;from-subquery</title>
<path fill="none" stroke="#000000" d="M550.724,-768.736C543.2345,-759.6474 534.8907,-748.3919 528.0859,-738.2847"/>
<polygon fill="#000000" stroke="#000000" points="530.9449,-736.2609 522.5622,-729.7815 525.0747,-740.0741 530.9449,-736.2609"/>
</g>
<!-- generate SELECT -->
<g id="node6" class="node">
<title>generate SELECT</title>
<ellipse fill="none" stroke="#000000" cx="664.3612" cy="-711.6626" rx="81.6185" ry="18"/>
<text text-anchor="middle" x="664.3612" y="-707.4626" font-family="Times,serif" font-size="14.00" fill="#000000">generate SELECT</text>
</g>
<!-- relation with joins&#45;&gt;generate SELECT -->
<g id="edge8" class="edge">
<title>relation with joins-&gt;generate SELECT</title>
<path fill="none" stroke="#000000" d="M591.3948,-769.1139C604.1327,-759.0845 620.3396,-746.3238 634.2422,-735.3773"/>
<polygon fill="#000000" stroke="#000000" points="636.4262,-738.1124 642.1179,-729.1762 632.0958,-732.6126 636.4262,-738.1124"/>
</g>
<!-- DISTINCT -->
<g id="node7" class="node">
<title>DISTINCT</title>
<ellipse fill="none" stroke="#000000" cx="591.3612" cy="-639.6626" rx="55.0323" ry="18"/>
<text text-anchor="middle" x="591.3612" y="-635.4626" font-family="Times,serif" font-size="14.00" fill="#000000">DISTINCT</text>
</g>
<!-- generate SELECT&#45;&gt;DISTINCT -->
<g id="edge9" class="edge">
<title>generate SELECT-&gt;DISTINCT</title>
<path fill="none" stroke="#000000" d="M646.3162,-693.8648C637.1647,-684.8387 625.9127,-673.7408 615.9788,-663.943"/>
<polygon fill="#000000" stroke="#000000" points="618.2733,-661.2901 608.6958,-656.7598 613.3578,-666.2738 618.2733,-661.2901"/>
</g>
<!-- non&#45;DISTINCT -->
<g id="node8" class="node">
<title>non-DISTINCT</title>
<ellipse fill="none" stroke="#000000" cx="737.3612" cy="-639.6626" rx="72.9334" ry="18"/>
<text text-anchor="middle" x="737.3612" y="-635.4626" font-family="Times,serif" font-size="14.00" fill="#000000">non-DISTINCT</text>
</g>
<!-- generate SELECT&#45;&gt;non&#45;DISTINCT -->
<g id="edge10" class="edge">
<title>generate SELECT-&gt;non-DISTINCT</title>
<path fill="none" stroke="#000000" d="M682.4061,-693.8648C691.423,-684.9714 702.4791,-674.0668 712.3044,-664.3761"/>
<polygon fill="#000000" stroke="#000000" points="714.8618,-666.7697 719.5238,-657.2556 709.9463,-661.7859 714.8618,-666.7697"/>
</g>
<!-- generate projection -->
<g id="node9" class="node">
<title>generate projection</title>
<ellipse fill="none" stroke="#000000" cx="664.3612" cy="-567.6626" rx="85.1127" ry="18"/>
<text text-anchor="middle" x="664.3612" y="-563.4626" font-family="Times,serif" font-size="14.00" fill="#000000">generate projection</text>
</g>
<!-- DISTINCT&#45;&gt;generate projection -->
<g id="edge11" class="edge">
<title>DISTINCT-&gt;generate projection</title>
<path fill="none" stroke="#000000" d="M609.0324,-622.2334C618.044,-613.3453 629.1642,-602.3774 639.066,-592.6112"/>
<polygon fill="#000000" stroke="#000000" points="641.6835,-594.9455 646.3455,-585.4314 636.768,-589.9617 641.6835,-594.9455"/>
</g>
<!-- non&#45;DISTINCT&#45;&gt;generate projection -->
<g id="edge12" class="edge">
<title>non-DISTINCT-&gt;generate projection</title>
<path fill="none" stroke="#000000" d="M719.3162,-621.8648C710.3666,-613.0378 699.4081,-602.2294 689.6381,-592.5933"/>
<polygon fill="#000000" stroke="#000000" points="692.029,-590.0354 682.4515,-585.5051 687.1134,-595.0192 692.029,-590.0354"/>
</g>
<!-- wildcard -->
<g id="node10" class="node">
<title>wildcard</title>
<ellipse fill="none" stroke="#000000" cx="617.3612" cy="-495.6626" rx="44.6414" ry="18"/>
<text text-anchor="middle" x="617.3612" y="-491.4626" font-family="Times,serif" font-size="14.00" fill="#000000">wildcard</text>
</g>
<!-- generate projection&#45;&gt;wildcard -->
<g id="edge13" class="edge">
<title>generate projection-&gt;wildcard</title>
<path fill="none" stroke="#000000" d="M652.5011,-549.4939C646.9781,-541.0332 640.3076,-530.8146 634.269,-521.5639"/>
<polygon fill="#000000" stroke="#000000" points="637.1281,-519.5409 628.731,-513.0803 631.2665,-523.3673 637.1281,-519.5409"/>
</g>
<!-- value -->
<g id="node11" class="node">
<title>value</title>
<ellipse fill="none" stroke="#000000" cx="773.3612" cy="-495.6626" rx="31.9012" ry="18"/>
<text text-anchor="middle" x="773.3612" y="-491.4626" font-family="Times,serif" font-size="14.00" fill="#000000">value</text>
</g>
<!-- generate projection&#45;&gt;value -->
<g id="edge14" class="edge">
<title>generate projection-&gt;value</title>
<path fill="none" stroke="#000000" d="M690.4694,-550.4168C706.5179,-539.8159 727.1235,-526.2049 743.7752,-515.2056"/>
<polygon fill="#000000" stroke="#000000" points="746.1504,-517.8313 752.5653,-509.3992 742.2923,-511.9905 746.1504,-517.8313"/>
</g>
<!-- generate WHERE -->
<g id="node16" class="node">
<title>generate WHERE</title>
<ellipse fill="none" stroke="#000000" cx="555.3612" cy="-423.6626" rx="80.4573" ry="18"/>
<text text-anchor="middle" x="555.3612" y="-419.4626" font-family="Times,serif" font-size="14.00" fill="#000000">generate WHERE</text>
</g>
<!-- wildcard&#45;&gt;generate WHERE -->
<g id="edge23" class="edge">
<title>wildcard-&gt;generate WHERE</title>
<path fill="none" stroke="#000000" d="M602.668,-478.5996C595.1145,-469.8278 585.7554,-458.9591 577.3604,-449.2101"/>
<polygon fill="#000000" stroke="#000000" points="579.7738,-446.6489 570.5963,-441.355 574.4694,-451.2165 579.7738,-446.6489"/>
</g>
<!-- qualified wildcard -->
<g id="node12" class="node">
<title>qualified wildcard</title>
<ellipse fill="none" stroke="#000000" cx="773.3612" cy="-423.6626" rx="81.6185" ry="18"/>
<text text-anchor="middle" x="773.3612" y="-419.4626" font-family="Times,serif" font-size="14.00" fill="#000000">qualified wildcard</text>
</g>
<!-- value&#45;&gt;qualified wildcard -->
<g id="edge15" class="edge">
<title>value-&gt;qualified wildcard</title>
<path fill="none" stroke="#000000" d="M767.4454,-477.8648C766.6616,-470.0489 766.4301,-460.6797 766.7509,-451.9462"/>
<polygon fill="#000000" stroke="#000000" points="770.2572,-451.9625 767.4161,-441.7557 763.2721,-451.5064 770.2572,-451.9625"/>
</g>
<!-- select&#45;expression -->
<g id="node13" class="node">
<title>select-expression</title>
<ellipse fill="none" stroke="#000000" cx="950.3612" cy="-423.6626" rx="77.5627" ry="18"/>
<text text-anchor="middle" x="950.3612" y="-419.4626" font-family="Times,serif" font-size="14.00" fill="#000000">select-expression</text>
</g>
<!-- value&#45;&gt;select&#45;expression -->
<g id="edge17" class="edge">
<title>value-&gt;select-expression</title>
<path fill="none" stroke="#000000" d="M799.4781,-485.0387C826.4353,-474.0731 869.1043,-456.7162 902.1991,-443.2539"/>
<polygon fill="#000000" stroke="#000000" points="903.7513,-446.4011 911.6955,-439.391 901.1137,-439.917 903.7513,-446.4011"/>
</g>
<!-- value&#45;&gt;generate WHERE -->
<g id="edge22" class="edge">
<title>value-&gt;generate WHERE</title>
<path fill="none" stroke="#000000" d="M745.7513,-486.5437C711.7727,-475.3214 653.2783,-456.0022 610.0695,-441.7314"/>
<polygon fill="#000000" stroke="#000000" points="611.1385,-438.3986 600.5454,-438.5858 608.9432,-445.0454 611.1385,-438.3986"/>
</g>
<!-- qualified wildcard&#45;&gt;value -->
<g id="edge16" class="edge">
<title>qualified wildcard-&gt;value</title>
<path fill="none" stroke="#000000" d="M779.3062,-441.7557C780.0761,-449.6103 780.2937,-458.9907 779.959,-467.7079"/>
<polygon fill="#000000" stroke="#000000" points="776.455,-467.6527 779.2769,-477.8648 783.4392,-468.1219 776.455,-467.6527"/>
</g>
<!-- unnamed expression -->
<g id="node14" class="node">
<title>unnamed expression</title>
<ellipse fill="none" stroke="#000000" cx="856.3612" cy="-351.6626" rx="90.2946" ry="18"/>
<text text-anchor="middle" x="856.3612" y="-347.4626" font-family="Times,serif" font-size="14.00" fill="#000000">unnamed expression</text>
</g>
<!-- select&#45;expression&#45;&gt;unnamed expression -->
<g id="edge18" class="edge">
<title>select-expression-&gt;unnamed expression</title>
<path fill="none" stroke="#000000" d="M927.6064,-406.2334C915.572,-397.0156 900.6172,-385.5609 887.5207,-375.5295"/>
<polygon fill="#000000" stroke="#000000" points="889.2993,-372.483 879.2322,-369.1808 885.0427,-378.0402 889.2993,-372.483"/>
</g>
<!-- expression with alias -->
<g id="node15" class="node">
<title>expression with alias</title>
<ellipse fill="none" stroke="#000000" cx="1056.3612" cy="-351.6626" rx="92.0509" ry="18"/>
<text text-anchor="middle" x="1056.3612" y="-347.4626" font-family="Times,serif" font-size="14.00" fill="#000000">expression with alias</text>
</g>
<!-- select&#45;expression&#45;&gt;expression with alias -->
<g id="edge20" class="edge">
<title>select-expression-&gt;expression with alias</title>
<path fill="none" stroke="#000000" d="M975.4817,-406.5996C989.402,-397.1442 1006.9094,-385.2524 1022.0725,-374.953"/>
<polygon fill="#000000" stroke="#000000" points="1024.379,-377.6174 1030.6846,-369.1032 1020.4458,-371.8269 1024.379,-377.6174"/>
</g>
<!-- unnamed expression&#45;&gt;value -->
<g id="edge19" class="edge">
<title>unnamed expression-&gt;value</title>
<path fill="none" stroke="#000000" d="M789.6487,-363.8968C746.3009,-373.3581 695.4934,-387.8369 682.3612,-405.6626 672.8711,-418.5443 674.4441,-427.7586 682.3612,-441.6626 693.7664,-461.6927 715.8511,-475.0601 735.4073,-483.4844"/>
<polygon fill="#000000" stroke="#000000" points="734.1624,-486.7561 744.7466,-487.2304 736.7683,-480.2592 734.1624,-486.7561"/>
</g>
<!-- expression with alias&#45;&gt;value -->
<g id="edge21" class="edge">
<title>expression with alias-&gt;value</title>
<path fill="none" stroke="#000000" d="M1057.9278,-369.9164C1058.5999,-390.2922 1056.2782,-422.8643 1037.3612,-441.6626 1006.571,-472.2596 881.6964,-486.8728 815.3186,-492.5975"/>
<polygon fill="#000000" stroke="#000000" points="814.8659,-489.123 805.191,-493.4411 815.447,-496.0989 814.8659,-489.123"/>
</g>
<!-- EXISTS -->
<g id="node17" class="node">
<title>EXISTS</title>
<ellipse fill="none" stroke="#000000" cx="555.3612" cy="-351.6626" rx="43.5175" ry="18"/>
<text text-anchor="middle" x="555.3612" y="-347.4626" font-family="Times,serif" font-size="14.00" fill="#000000">EXISTS</text>
</g>
<!-- generate WHERE&#45;&gt;EXISTS -->
<g id="edge24" class="edge">
<title>generate WHERE-&gt;EXISTS</title>
<path fill="none" stroke="#000000" d="M555.3612,-405.4939C555.3612,-397.7935 555.3612,-388.6369 555.3612,-380.0792"/>
<polygon fill="#000000" stroke="#000000" points="558.8613,-380.0758 555.3612,-370.0758 551.8613,-380.0759 558.8613,-380.0758"/>
</g>
<!-- condition -->
<g id="node21" class="node">
<title>condition</title>
<ellipse fill="none" stroke="#000000" cx="349.3612" cy="-351.6626" rx="47.5332" ry="18"/>
<text text-anchor="middle" x="349.3612" y="-347.4626" font-family="Times,serif" font-size="14.00" fill="#000000">condition</text>
</g>
<!-- generate WHERE&#45;&gt;condition -->
<g id="edge30" class="edge">
<title>generate WHERE-&gt;condition</title>
<path fill="none" stroke="#000000" d="M511.9256,-408.4812C477.2901,-396.3756 428.9635,-379.4848 394.0127,-367.2689"/>
<polygon fill="#000000" stroke="#000000" points="395.1268,-363.9508 384.532,-363.9553 392.8172,-370.5588 395.1268,-363.9508"/>
</g>
<!-- ISNULL -->
<g id="node22" class="node">
<title>ISNULL</title>
<ellipse fill="none" stroke="#000000" cx="45.3612" cy="-101.4156" rx="45.2227" ry="18"/>
<text text-anchor="middle" x="45.3612" y="-97.2156" font-family="Times,serif" font-size="14.00" fill="#000000">ISNULL</text>
</g>
<!-- generate WHERE&#45;&gt;ISNULL -->
<g id="edge31" class="edge">
<title>generate WHERE-&gt;ISNULL</title>
<path fill="none" stroke="#000000" d="M487.9246,-413.7196C374.9081,-395.6741 154.4886,-354.1111 102.3612,-297.6626 58.7409,-250.4264 48.3143,-171.7219 45.9448,-129.7741"/>
<polygon fill="#000000" stroke="#000000" points="49.4376,-129.5331 45.4926,-119.7002 42.4446,-129.8471 49.4376,-129.5331"/>
</g>
<!-- negation -->
<g id="node18" class="node">
<title>negation</title>
<ellipse fill="none" stroke="#000000" cx="534.3612" cy="-268.2469" rx="44.0833" ry="18"/>
<text text-anchor="middle" x="534.3612" y="-264.0469" font-family="Times,serif" font-size="14.00" fill="#000000">negation</text>
</g>
<!-- EXISTS&#45;&gt;negation -->
<g id="edge25" class="edge">
<title>EXISTS-&gt;negation</title>
<path fill="none" stroke="#000000" d="M550.8045,-333.5626C548.0526,-322.6317 544.4886,-308.4749 541.3825,-296.1369"/>
<polygon fill="#000000" stroke="#000000" points="544.7445,-295.1545 538.9089,-286.3116 537.9563,-296.8635 544.7445,-295.1545"/>
</g>
<!-- no&#45;negation -->
<g id="node19" class="node">
<title>no-negation</title>
<ellipse fill="none" stroke="#000000" cx="653.3612" cy="-268.2469" rx="57.3263" ry="18"/>
<text text-anchor="middle" x="653.3612" y="-264.0469" font-family="Times,serif" font-size="14.00" fill="#000000">no-negation</text>
</g>
<!-- EXISTS&#45;&gt;no&#45;negation -->
<g id="edge26" class="edge">
<title>EXISTS-&gt;no-negation</title>
<path fill="none" stroke="#000000" d="M574.7228,-335.1823C589.2958,-322.7781 609.4711,-305.6053 625.7374,-291.7598"/>
<polygon fill="#000000" stroke="#000000" points="628.0205,-294.4126 633.3669,-285.2656 623.4833,-289.0821 628.0205,-294.4126"/>
</g>
<!-- where&#45;subquery -->
<g id="node20" class="node">
<title>where-subquery</title>
<polygon fill="none" stroke="#000000" points="706.5381,-202.8313 600.1842,-202.8313 600.1842,-166.8313 706.5381,-166.8313 706.5381,-202.8313"/>
<text text-anchor="middle" x="653.3612" y="-180.6313" font-family="Times,serif" font-size="14.00" fill="#000000">where-subquery</text>
</g>
<!-- negation&#45;&gt;where&#45;subquery -->
<g id="edge27" class="edge">
<title>negation-&gt;where-subquery</title>
<path fill="none" stroke="#000000" d="M556.7441,-252.5571C574.2996,-240.2512 599.0328,-222.9139 619.0796,-208.8617"/>
<polygon fill="#000000" stroke="#000000" points="621.1699,-211.6707 627.3495,-203.0647 617.1519,-205.9387 621.1699,-211.6707"/>
</g>
<!-- no&#45;negation&#45;&gt;where&#45;subquery -->
<g id="edge28" class="edge">
<title>no-negation-&gt;where-subquery</title>
<path fill="none" stroke="#000000" d="M653.3612,-250.147C653.3612,-239.3253 653.3612,-225.3421 653.3612,-213.092"/>
<polygon fill="#000000" stroke="#000000" points="656.8613,-212.8959 653.3612,-202.8959 649.8613,-212.8959 656.8613,-212.8959"/>
</g>
<!-- where&#45;subquery&#45;&gt;generate WHERE -->
<g id="edge29" class="edge">
<title>where-subquery-&gt;generate WHERE</title>
<path fill="none" stroke="#000000" d="M686.1237,-202.8859C698.981,-211.8564 712.3239,-223.9809 719.3612,-238.8313 730.5582,-262.4597 730.9187,-274.2083 719.3612,-297.6626 695.0446,-347.0094 641.0893,-382.4217 601.6834,-402.9029"/>
<polygon fill="#000000" stroke="#000000" points="599.8549,-399.9054 592.5093,-407.5404 603.0129,-406.1526 599.8549,-399.9054"/>
</g>
<!-- left column -->
<g id="node23" class="node">
<title>left column</title>
<ellipse fill="none" stroke="#000000" cx="166.3612" cy="-268.2469" rx="55.0759" ry="18"/>
<text text-anchor="middle" x="166.3612" y="-264.0469" font-family="Times,serif" font-size="14.00" fill="#000000">left column</text>
</g>
<!-- condition&#45;&gt;left column -->
<g id="edge32" class="edge">
<title>condition-&gt;left column</title>
<path fill="none" stroke="#000000" d="M318.7311,-337.7007C288.3184,-323.8379 241.4861,-302.4906 207.7701,-287.1221"/>
<polygon fill="#000000" stroke="#000000" points="209.1838,-283.9201 198.6328,-282.9571 206.2804,-290.2896 209.1838,-283.9201"/>
</g>
<!-- left value -->
<g id="node24" class="node">
<title>left value</title>
<ellipse fill="none" stroke="#000000" cx="287.3612" cy="-268.2469" rx="47.4684" ry="18"/>
<text text-anchor="middle" x="287.3612" y="-264.0469" font-family="Times,serif" font-size="14.00" fill="#000000">left value</text>
</g>
<!-- condition&#45;&gt;left value -->
<g id="edge33" class="edge">
<title>condition-&gt;left value</title>
<path fill="none" stroke="#000000" d="M336.2125,-333.9723C327.5232,-322.2815 315.9953,-306.7717 306.3202,-293.7546"/>
<polygon fill="#000000" stroke="#000000" points="309.0527,-291.5637 300.2782,-285.6257 303.4345,-295.7395 309.0527,-291.5637"/>
</g>
<!-- left numeric\nexpression -->
<g id="node25" class="node">
<title>left numeric\nexpression</title>
<ellipse fill="none" stroke="#000000" cx="412.3612" cy="-268.2469" rx="59.3328" ry="29.3315"/>
<text text-anchor="middle" x="412.3612" y="-272.4469" font-family="Times,serif" font-size="14.00" fill="#000000">left numeric</text>
<text text-anchor="middle" x="412.3612" y="-255.6469" font-family="Times,serif" font-size="14.00" fill="#000000">expression</text>
</g>
<!-- condition&#45;&gt;left numeric\nexpression -->
<g id="edge34" class="edge">
<title>condition-&gt;left numeric\nexpression</title>
<path fill="none" stroke="#000000" d="M362.7218,-333.9723C369.2769,-325.2929 377.4218,-314.5087 385.2058,-304.2022"/>
<polygon fill="#000000" stroke="#000000" points="388.0999,-306.1776 391.3338,-296.0883 382.514,-301.9588 388.0999,-306.1776"/>
</g>
<!-- EXIT -->
<g id="node44" class="node">
<title>EXIT</title>
<ellipse fill="none" stroke="#000000" cx="234.3612" cy="-18" rx="33.043" ry="18"/>
<text text-anchor="middle" x="234.3612" y="-13.8" font-family="Times,serif" font-size="14.00" fill="#000000">EXIT</text>
</g>
<!-- ISNULL&#45;&gt;EXIT -->
<g id="edge83" class="edge">
<title>ISNULL-&gt;EXIT</title>
<path fill="none" stroke="#000000" d="M71.1336,-86.5699C79.9683,-81.6981 89.9905,-76.4075 99.3612,-72 131.8098,-56.7377 169.8155,-41.7861 197.2195,-31.4999"/>
<polygon fill="#000000" stroke="#000000" points="198.6566,-34.6996 206.8061,-27.9294 196.2133,-28.1398 198.6566,-34.6996"/>
</g>
<!-- &lt; -->
<g id="node38" class="node">
<title>&lt;</title>
<ellipse fill="none" stroke="#000000" cx="365.3612" cy="-184.8313" rx="27" ry="18"/>
<text text-anchor="middle" x="365.3612" y="-180.6313" font-family="Times,serif" font-size="14.00" fill="#000000">&lt;</text>
</g>
<!-- left column&#45;&gt;&lt; -->
<g id="edge65" class="edge">
<title>left column-&gt;&lt;</title>
<path fill="none" stroke="#000000" d="M197.8984,-253.4172C208.4645,-248.5984 220.3563,-243.3357 231.3612,-238.8313 274.3045,-221.2541 286.7658,-221.2356 329.3612,-202.8313 331.1412,-202.0622 332.9583,-201.2483 334.7836,-200.4084"/>
<polygon fill="#000000" stroke="#000000" points="336.3302,-203.5485 343.8438,-196.0789 333.312,-197.2326 336.3302,-203.5485"/>
</g>
<!-- &lt;= -->
<g id="node39" class="node">
<title>&lt;=</title>
<ellipse fill="none" stroke="#000000" cx="221.3612" cy="-184.8313" rx="27" ry="18"/>
<text text-anchor="middle" x="221.3612" y="-180.6313" font-family="Times,serif" font-size="14.00" fill="#000000">&lt;=</text>
</g>
<!-- left column&#45;&gt;&lt;= -->
<g id="edge68" class="edge">
<title>left column-&gt;&lt;=</title>
<path fill="none" stroke="#000000" d="M178.0252,-250.5566C185.8138,-238.7441 196.1732,-223.0325 204.8104,-209.9329"/>
<polygon fill="#000000" stroke="#000000" points="207.8794,-211.6366 210.4621,-201.3614 202.0354,-207.7833 207.8794,-211.6366"/>
</g>
<!-- = -->
<g id="node40" class="node">
<title>=</title>
<ellipse fill="none" stroke="#000000" cx="293.3612" cy="-184.8313" rx="27" ry="18"/>
<text text-anchor="middle" x="293.3612" y="-180.6313" font-family="Times,serif" font-size="14.00" fill="#000000">=</text>
</g>
<!-- left column&#45;&gt;= -->
<g id="edge71" class="edge">
<title>left column-&gt;=</title>
<path fill="none" stroke="#000000" d="M191.1495,-251.9655C212.467,-237.9639 243.1969,-217.78 265.3896,-203.2035"/>
<polygon fill="#000000" stroke="#000000" points="267.5926,-205.944 274.0294,-197.5287 263.7496,-200.0932 267.5926,-205.944"/>
</g>
<!-- left value&#45;&gt;&lt; -->
<g id="edge66" class="edge">
<title>left value-&gt;&lt;</title>
<path fill="none" stroke="#000000" d="M303.5228,-250.9632C315.2355,-238.4372 331.1915,-221.3734 343.9616,-207.7166"/>
<polygon fill="#000000" stroke="#000000" points="346.7826,-209.8242 351.0562,-200.1295 341.6697,-205.0432 346.7826,-209.8242"/>
</g>
<!-- left value&#45;&gt;&lt;= -->
<g id="edge69" class="edge">
<title>left value-&gt;&lt;=</title>
<path fill="none" stroke="#000000" d="M273.6859,-250.9632C264.0554,-238.7914 251.0346,-222.3347 240.3914,-208.8831"/>
<polygon fill="#000000" stroke="#000000" points="243.073,-206.6315 234.1233,-200.961 237.5834,-210.9749 243.073,-206.6315"/>
</g>
<!-- left value&#45;&gt;= -->
<g id="edge72" class="edge">
<title>left value-&gt;=</title>
<path fill="none" stroke="#000000" d="M288.6631,-250.147C289.4415,-239.3253 290.4473,-225.3421 291.3284,-213.092"/>
<polygon fill="#000000" stroke="#000000" points="294.8352,-213.1213 292.0618,-202.8959 287.8533,-212.619 294.8352,-213.1213"/>
</g>
<!-- left numeric\nexpression&#45;&gt;&lt; -->
<g id="edge67" class="edge">
<title>left numeric\nexpression-&gt;&lt;</title>
<path fill="none" stroke="#000000" d="M396.1864,-239.54C390.9836,-230.306 385.2485,-220.1273 380.1505,-211.0793"/>
<polygon fill="#000000" stroke="#000000" points="383.0756,-209.1408 375.1174,-202.1467 376.977,-212.5771 383.0756,-209.1408"/>
</g>
<!-- left numeric\nexpression&#45;&gt;&lt;= -->
<g id="edge70" class="edge">
<title>left numeric\nexpression-&gt;&lt;=</title>
<path fill="none" stroke="#000000" d="M367.0979,-248.9006C359.1896,-245.5347 351.0385,-242.0746 343.3612,-238.8313 305.1915,-222.7064 295.0242,-220.1064 257.3612,-202.8313 255.5986,-202.0229 253.7952,-201.1782 251.9804,-200.3146"/>
<polygon fill="#000000" stroke="#000000" points="253.4727,-197.1484 242.9493,-195.9199 250.4097,-203.4427 253.4727,-197.1484"/>
</g>
<!-- left numeric\nexpression&#45;&gt;= -->
<g id="edge73" class="edge">
<title>left numeric\nexpression-&gt;=</title>
<path fill="none" stroke="#000000" d="M377.9414,-244.1197C359.7038,-231.3356 337.6183,-215.8543 320.5894,-203.9175"/>
<polygon fill="#000000" stroke="#000000" points="322.39,-200.9055 312.1924,-198.0315 318.372,-206.6375 322.39,-200.9055"/>
</g>
<!-- numeric expression -->
<g id="node26" class="node">
<title>numeric expression</title>
<ellipse fill="none" stroke="#000000" cx="877.3612" cy="-1010.8626" rx="86.2775" ry="18"/>
<text text-anchor="middle" x="877.3612" y="-1006.6626" font-family="Times,serif" font-size="14.00" fill="#000000">numeric expression</text>
</g>
<!-- ne left column -->
<g id="node27" class="node">
<title>ne left column</title>
<ellipse fill="none" stroke="#000000" cx="733.3612" cy="-936.0626" rx="66.6344" ry="18"/>
<text text-anchor="middle" x="733.3612" y="-931.8626" font-family="Times,serif" font-size="14.00" fill="#000000">ne left column</text>
</g>
<!-- numeric expression&#45;&gt;ne left column -->
<g id="edge35" class="edge">
<title>numeric expression-&gt;ne left column</title>
<path fill="none" stroke="#000000" d="M845.0447,-994.076C823.9094,-983.0973 796.1394,-968.6724 773.5783,-956.9532"/>
<polygon fill="#000000" stroke="#000000" points="775.0683,-953.7831 764.5807,-952.2794 771.8415,-959.995 775.0683,-953.7831"/>
</g>
<!-- ne left value -->
<g id="node28" class="node">
<title>ne left value</title>
<ellipse fill="none" stroke="#000000" cx="877.3612" cy="-936.0626" rx="58.5271" ry="18"/>
<text text-anchor="middle" x="877.3612" y="-931.8626" font-family="Times,serif" font-size="14.00" fill="#000000">ne left value</text>
</g>
<!-- numeric expression&#45;&gt;ne left value -->
<g id="edge36" class="edge">
<title>numeric expression-&gt;ne left value</title>
<path fill="none" stroke="#000000" d="M877.3612,-992.7556C877.3612,-984.2737 877.3612,-973.9688 877.3612,-964.483"/>
<polygon fill="#000000" stroke="#000000" points="880.8612,-964.262 877.3612,-954.2621 873.8612,-964.2621 880.8612,-964.262"/>
</g>
<!-- ne left numeric\nsubexpression -->
<g id="node29" class="node">
<title>ne left numeric\nsubexpression</title>
<polygon fill="none" stroke="#000000" points="1054.6035,-956.6645 954.1188,-956.6645 954.1188,-915.4607 1054.6035,-915.4607 1054.6035,-956.6645"/>
<text text-anchor="middle" x="1004.3612" y="-940.2626" font-family="Times,serif" font-size="14.00" fill="#000000">ne left numeric</text>
<text text-anchor="middle" x="1004.3612" y="-923.4626" font-family="Times,serif" font-size="14.00" fill="#000000">subexpression</text>
</g>
<!-- numeric expression&#45;&gt;ne left numeric\nsubexpression -->
<g id="edge37" class="edge">
<title>numeric expression-&gt;ne left numeric\nsubexpression</title>
<path fill="none" stroke="#000000" d="M906.1794,-993.8893C922.2799,-984.4065 942.6715,-972.3963 960.6938,-961.7816"/>
<polygon fill="#000000" stroke="#000000" points="962.4813,-964.7908 969.3217,-956.7 958.9288,-958.7592 962.4813,-964.7908"/>
</g>
<!-- + -->
<g id="node30" class="node">
<title>+</title>
<ellipse fill="none" stroke="#000000" cx="926.3612" cy="-861.2626" rx="27" ry="18"/>
<text text-anchor="middle" x="926.3612" y="-857.0626" font-family="Times,serif" font-size="14.00" fill="#000000">+</text>
</g>
<!-- ne left column&#45;&gt;+ -->
<g id="edge38" class="edge">
<title>ne left column-&gt;+</title>
<path fill="none" stroke="#000000" d="M776.196,-922.0738C808.0576,-911.3064 852.4041,-895.5523 890.3612,-879.2626 892.1431,-878.4978 893.9617,-877.6874 895.7881,-876.8501"/>
<polygon fill="#000000" stroke="#000000" points="897.3319,-879.9916 904.8514,-872.5278 894.3187,-873.6733 897.3319,-879.9916"/>
</g>
<!-- &#45; -->
<g id="node31" class="node">
<title>-</title>
<ellipse fill="none" stroke="#000000" cx="998.3612" cy="-861.2626" rx="27" ry="18"/>
<text text-anchor="middle" x="998.3612" y="-857.0626" font-family="Times,serif" font-size="14.00" fill="#000000">-</text>
</g>
<!-- ne left column&#45;&gt;&#45; -->
<g id="edge41" class="edge">
<title>ne left column-&gt;-</title>
<path fill="none" stroke="#000000" d="M779.9142,-923.0365C789.628,-920.3986 799.8158,-917.6909 809.3612,-915.2626 877.0617,-898.0395 896.6766,-903.0437 962.3612,-879.2626 964.2337,-878.5846 966.1355,-877.8345 968.0368,-877.0367"/>
<polygon fill="#000000" stroke="#000000" points="969.7569,-880.0991 977.4019,-872.7639 966.8513,-873.7306 969.7569,-880.0991"/>
</g>
<!-- * -->
<g id="node32" class="node">
<title>*</title>
<ellipse fill="none" stroke="#000000" cx="782.3612" cy="-861.2626" rx="27" ry="18"/>
<text text-anchor="middle" x="782.3612" y="-857.0626" font-family="Times,serif" font-size="14.00" fill="#000000">*</text>
</g>
<!-- ne left column&#45;&gt;* -->
<g id="edge44" class="edge">
<title>ne left column-&gt;*</title>
<path fill="none" stroke="#000000" d="M744.9735,-918.336C751.2527,-908.7506 759.1108,-896.7549 766.0002,-886.238"/>
<polygon fill="#000000" stroke="#000000" points="768.9515,-888.1199 771.5036,-877.837 763.0961,-884.2841 768.9515,-888.1199"/>
</g>
<!-- / -->
<g id="node33" class="node">
<title>/</title>
<ellipse fill="none" stroke="#000000" cx="854.3612" cy="-861.2626" rx="27" ry="18"/>
<text text-anchor="middle" x="854.3612" y="-857.0626" font-family="Times,serif" font-size="14.00" fill="#000000">/</text>
</g>
<!-- ne left column&#45;&gt;/ -->
<g id="edge47" class="edge">
<title>ne left column-&gt;/</title>
<path fill="none" stroke="#000000" d="M760.215,-919.462C779.6564,-907.4437 805.8947,-891.2237 825.7334,-878.9597"/>
<polygon fill="#000000" stroke="#000000" points="827.6852,-881.868 834.3508,-873.6326 824.0044,-875.9138 827.6852,-881.868"/>
</g>
<!-- ne left value&#45;&gt;+ -->
<g id="edge39" class="edge">
<title>ne left value-&gt;+</title>
<path fill="none" stroke="#000000" d="M888.9735,-918.336C895.2527,-908.7506 903.1108,-896.7549 910.0002,-886.238"/>
<polygon fill="#000000" stroke="#000000" points="912.9515,-888.1199 915.5036,-877.837 907.0961,-884.2841 912.9515,-888.1199"/>
</g>
<!-- ne left value&#45;&gt;&#45; -->
<g id="edge42" class="edge">
<title>ne left value-&gt;-</title>
<path fill="none" stroke="#000000" d="M903.6163,-919.8321C923.1454,-907.7596 949.7726,-891.2991 969.8264,-878.9022"/>
<polygon fill="#000000" stroke="#000000" points="971.8631,-881.758 978.5286,-873.5227 968.1823,-875.8038 971.8631,-881.758"/>
</g>
<!-- ne left value&#45;&gt;* -->
<g id="edge45" class="edge">
<title>ne left value-&gt;*</title>
<path fill="none" stroke="#000000" d="M855.8042,-919.0893C841.5776,-907.8877 822.8721,-893.1596 807.8996,-881.3707"/>
<polygon fill="#000000" stroke="#000000" points="810.0398,-878.6011 800.0177,-875.1648 805.7094,-884.101 810.0398,-878.6011"/>
</g>
<!-- ne left value&#45;&gt;/ -->
<g id="edge48" class="edge">
<title>ne left value-&gt;/</title>
<path fill="none" stroke="#000000" d="M871.7935,-917.9556C869.0899,-909.163 865.7839,-898.4112 862.7805,-888.6438"/>
<polygon fill="#000000" stroke="#000000" points="866.0827,-887.4744 859.7982,-878.9447 859.3919,-889.5317 866.0827,-887.4744"/>
</g>
<!-- ne left numeric\nsubexpression&#45;&gt;+ -->
<g id="edge40" class="edge">
<title>ne left numeric\nsubexpression-&gt;+</title>
<path fill="none" stroke="#000000" d="M982.6338,-915.2266C972.1871,-905.2085 959.6684,-893.2034 949.0937,-883.0625"/>
<polygon fill="#000000" stroke="#000000" points="951.4349,-880.4583 941.7947,-876.063 946.5898,-885.5106 951.4349,-880.4583"/>
</g>
<!-- ne left numeric\nsubexpression&#45;&gt;&#45; -->
<g id="edge43" class="edge">
<title>ne left numeric\nsubexpression-&gt;-</title>
<path fill="none" stroke="#000000" d="M1002.6898,-915.2266C1002.0489,-907.2362 1001.3065,-897.9817 1000.6195,-889.4173"/>
<polygon fill="#000000" stroke="#000000" points="1004.108,-889.1323 999.8196,-879.4442 997.1304,-889.692 1004.108,-889.1323"/>
</g>
<!-- ne left numeric\nsubexpression&#45;&gt;* -->
<g id="edge46" class="edge">
<title>ne left numeric\nsubexpression-&gt;*</title>
<path fill="none" stroke="#000000" d="M953.9008,-918.0391C951.0176,-917.0823 948.156,-916.1504 945.3612,-915.2626 889.4461,-897.5006 873.0607,-900.4743 818.3612,-879.2626 816.5044,-878.5425 814.6148,-877.7597 812.7229,-876.9371"/>
<polygon fill="#000000" stroke="#000000" points="813.9265,-873.637 803.3828,-872.5974 810.9769,-879.9853 813.9265,-873.637"/>
</g>
<!-- ne left numeric\nsubexpression&#45;&gt;/ -->
<g id="edge49" class="edge">
<title>ne left numeric\nsubexpression-&gt;/</title>
<path fill="none" stroke="#000000" d="M962.9295,-915.4369C941.2993,-904.6644 914.3996,-891.2607 890.3612,-879.2626 888.6262,-878.3966 886.8443,-877.5069 885.0461,-876.6087"/>
<polygon fill="#000000" stroke="#000000" points="886.5705,-873.4578 876.0607,-872.1185 883.4414,-879.7195 886.5705,-873.4578"/>
</g>
<!-- ne right column -->
<g id="node34" class="node">
<title>ne right column</title>
<ellipse fill="none" stroke="#000000" cx="761.3612" cy="-786.4626" rx="72.3748" ry="18"/>
<text text-anchor="middle" x="761.3612" y="-782.2626" font-family="Times,serif" font-size="14.00" fill="#000000">ne right column</text>
</g>
<!-- +&#45;&gt;ne right column -->
<g id="edge50" class="edge">
<title>+-&gt;ne right column</title>
<path fill="none" stroke="#000000" d="M904.7428,-850.2391C900.0238,-847.893 895.0413,-845.4614 890.3612,-843.2626 863.0852,-830.448 832.1987,-816.8179 807.4877,-806.1225"/>
<polygon fill="#000000" stroke="#000000" points="808.5648,-802.7753 797.9964,-802.0271 805.7915,-809.2026 808.5648,-802.7753"/>
</g>
<!-- ne right value -->
<g id="node35" class="node">
<title>ne right value</title>
<ellipse fill="none" stroke="#000000" cx="915.3612" cy="-786.4626" rx="64.2669" ry="18"/>
<text text-anchor="middle" x="915.3612" y="-782.2626" font-family="Times,serif" font-size="14.00" fill="#000000">ne right value</text>
</g>
<!-- +&#45;&gt;ne right value -->
<g id="edge51" class="edge">
<title>+-&gt;ne right value</title>
<path fill="none" stroke="#000000" d="M923.6984,-843.1556C922.4376,-834.5825 920.903,-824.147 919.4957,-814.5773"/>
<polygon fill="#000000" stroke="#000000" points="922.9553,-814.0464 918.0375,-804.6621 916.0298,-815.0649 922.9553,-814.0464"/>
</g>
<!-- ne right numeric\nsubexpression -->
<g id="node36" class="node">
<title>ne right numeric\nsubexpression</title>
<polygon fill="none" stroke="#000000" points="1105.3896,-807.0645 997.3327,-807.0645 997.3327,-765.8607 1105.3896,-765.8607 1105.3896,-807.0645"/>
<text text-anchor="middle" x="1051.3612" y="-790.6626" font-family="Times,serif" font-size="14.00" fill="#000000">ne right numeric</text>
<text text-anchor="middle" x="1051.3612" y="-773.8626" font-family="Times,serif" font-size="14.00" fill="#000000">subexpression</text>
</g>
<!-- +&#45;&gt;ne right numeric\nsubexpression -->
<g id="edge52" class="edge">
<title>+-&gt;ne right numeric\nsubexpression</title>
<path fill="none" stroke="#000000" d="M946.7228,-849.0782C963.3087,-839.1532 987.3055,-824.7935 1008.1359,-812.3286"/>
<polygon fill="#000000" stroke="#000000" points="1010.0547,-815.2592 1016.8385,-807.1209 1006.4603,-809.2525 1010.0547,-815.2592"/>
</g>
<!-- &#45;&#45;&gt;ne right column -->
<g id="edge53" class="edge">
<title>--&gt;ne right column</title>
<path fill="none" stroke="#000000" d="M977.3407,-849.9247C972.498,-847.5463 967.3133,-845.1806 962.3612,-843.2626 936.7367,-833.3377 871.0035,-815.2563 821.6336,-802.1547"/>
<polygon fill="#000000" stroke="#000000" points="822.2439,-798.6958 811.6813,-799.5221 820.4537,-805.4631 822.2439,-798.6958"/>
</g>
<!-- &#45;&#45;&gt;ne right value -->
<g id="edge54" class="edge">
<title>--&gt;ne right value</title>
<path fill="none" stroke="#000000" d="M981.963,-846.4845C970.6954,-836.3301 955.4733,-822.6119 942.4259,-810.8534"/>
<polygon fill="#000000" stroke="#000000" points="944.4094,-807.9294 934.6378,-803.8347 939.7232,-813.1293 944.4094,-807.9294"/>
</g>
<!-- &#45;&#45;&gt;ne right numeric\nsubexpression -->
<g id="edge55" class="edge">
<title>--&gt;ne right numeric\nsubexpression</title>
<path fill="none" stroke="#000000" d="M1010.1236,-844.662C1016.1619,-836.14 1023.6971,-825.5054 1030.6684,-815.6667"/>
<polygon fill="#000000" stroke="#000000" points="1033.6721,-817.4814 1036.5977,-807.2985 1027.9605,-813.4344 1033.6721,-817.4814"/>
</g>
<!-- *&#45;&gt;ne right column -->
<g id="edge56" class="edge">
<title>*-&gt;ne right column</title>
<path fill="none" stroke="#000000" d="M777.3844,-843.536C774.9359,-834.8146 771.9272,-824.0979 769.1807,-814.3152"/>
<polygon fill="#000000" stroke="#000000" points="772.5208,-813.2632 766.448,-804.5815 765.7814,-815.1553 772.5208,-813.2632"/>
</g>
<!-- *&#45;&gt;ne right value -->
<g id="edge57" class="edge">
<title>*-&gt;ne right value</title>
<path fill="none" stroke="#000000" d="M803.1424,-849.5751C822.966,-838.4262 853.2951,-821.3689 877.4274,-807.7968"/>
<polygon fill="#000000" stroke="#000000" points="879.3377,-810.738 886.3381,-802.7853 875.9063,-804.6367 879.3377,-810.738"/>
</g>
<!-- *&#45;&gt;ne right numeric\nsubexpression -->
<g id="edge58" class="edge">
<title>*-&gt;ne right numeric\nsubexpression</title>
<path fill="none" stroke="#000000" d="M803.2908,-849.6781C808.1382,-847.3125 813.3477,-845.0144 818.3612,-843.2626 888.279,-818.8314 911.8684,-826.6701 987.2198,-807.3979"/>
<polygon fill="#000000" stroke="#000000" points="988.4027,-810.7057 997.1798,-804.7716 986.6179,-803.937 988.4027,-810.7057"/>
</g>
<!-- /&#45;&gt;ne right column -->
<g id="edge59" class="edge">
<title>/-&gt;ne right column</title>
<path fill="none" stroke="#000000" d="M836.8686,-847.1933C823.9939,-836.8381 806.1796,-822.5101 791.0874,-810.3715"/>
<polygon fill="#000000" stroke="#000000" points="793.0176,-807.4323 783.0317,-803.8922 788.6304,-812.8869 793.0176,-807.4323"/>
</g>
<!-- /&#45;&gt;ne right value -->
<g id="edge60" class="edge">
<title>/-&gt;ne right value</title>
<path fill="none" stroke="#000000" d="M867.2977,-845.3994C875.1567,-835.7625 885.3758,-823.2315 894.3693,-812.2034"/>
<polygon fill="#000000" stroke="#000000" points="897.3409,-814.0976 900.9485,-804.1358 891.9161,-809.6736 897.3409,-814.0976"/>
</g>
<!-- /&#45;&gt;ne right numeric\nsubexpression -->
<g id="edge61" class="edge">
<title>/-&gt;ne right numeric\nsubexpression</title>
<path fill="none" stroke="#000000" d="M875.8586,-849.9686C880.5851,-847.6393 885.6013,-845.2829 890.3612,-843.2626 908.3941,-835.6085 950.7308,-820.7146 987.4643,-808.0983"/>
<polygon fill="#000000" stroke="#000000" points="988.8309,-811.3299 997.1565,-804.7774 986.5619,-804.7078 988.8309,-811.3299"/>
</g>
<!-- ne EXIT -->
<g id="node37" class="node">
<title>ne EXIT</title>
<ellipse fill="none" stroke="#000000" cx="915.3612" cy="-711.6626" rx="44.6019" ry="18"/>
<text text-anchor="middle" x="915.3612" y="-707.4626" font-family="Times,serif" font-size="14.00" fill="#000000">ne EXIT</text>
</g>
<!-- ne right column&#45;&gt;ne EXIT -->
<g id="edge62" class="edge">
<title>ne right column-&gt;ne EXIT</title>
<path fill="none" stroke="#000000" d="M794.398,-770.4161C818.8777,-758.5259 852.2728,-742.3055 877.7727,-729.9198"/>
<polygon fill="#000000" stroke="#000000" points="879.3131,-733.0627 886.7791,-725.5453 876.2548,-726.7661 879.3131,-733.0627"/>
</g>
<!-- ne right value&#45;&gt;ne EXIT -->
<g id="edge63" class="edge">
<title>ne right value-&gt;ne EXIT</title>
<path fill="none" stroke="#000000" d="M915.3612,-768.3556C915.3612,-759.8737 915.3612,-749.5688 915.3612,-740.083"/>
<polygon fill="#000000" stroke="#000000" points="918.8612,-739.862 915.3612,-729.8621 911.8612,-739.8621 918.8612,-739.862"/>
</g>
<!-- ne right numeric\nsubexpression&#45;&gt;ne EXIT -->
<g id="edge64" class="edge">
<title>ne right numeric\nsubexpression-&gt;ne EXIT</title>
<path fill="none" stroke="#000000" d="M1013.8385,-765.8251C994.155,-754.9992 970.1758,-741.8106 950.8079,-731.1583"/>
<polygon fill="#000000" stroke="#000000" points="952.4373,-728.06 941.9884,-726.3075 949.0638,-734.1935 952.4373,-728.06"/>
</g>
<!-- right column -->
<g id="node41" class="node">
<title>right column</title>
<ellipse fill="none" stroke="#000000" cx="169.3612" cy="-101.4156" rx="60.8159" ry="18"/>
<text text-anchor="middle" x="169.3612" y="-97.2156" font-family="Times,serif" font-size="14.00" fill="#000000">right column</text>
</g>
<!-- &lt;&#45;&gt;right column -->
<g id="edge74" class="edge">
<title>&lt;-&gt;right column</title>
<path fill="none" stroke="#000000" d="M343.8049,-173.6722C339.0821,-171.3345 334.0823,-168.9406 329.3612,-166.8313 289.6502,-149.0889 278.5919,-147.3612 238.3612,-130.8313 230.2222,-127.4872 221.5726,-123.8591 213.2491,-120.3299"/>
<polygon fill="#000000" stroke="#000000" points="214.6065,-117.1039 204.0346,-116.4077 211.865,-123.5447 214.6065,-117.1039"/>
</g>
<!-- right value -->
<g id="node42" class="node">
<title>right value</title>
<ellipse fill="none" stroke="#000000" cx="300.3612" cy="-101.4156" rx="52.7079" ry="18"/>
<text text-anchor="middle" x="300.3612" y="-97.2156" font-family="Times,serif" font-size="14.00" fill="#000000">right value</text>
</g>
<!-- &lt;&#45;&gt;right value -->
<g id="edge75" class="edge">
<title>&lt;-&gt;right value</title>
<path fill="none" stroke="#000000" d="M352.8285,-168.7479C343.6023,-156.9077 330.8708,-140.5692 320.2599,-126.952"/>
<polygon fill="#000000" stroke="#000000" points="322.8848,-124.6263 313.9774,-118.8896 317.3632,-128.9289 322.8848,-124.6263"/>
</g>
<!-- right numeric\nexpression -->
<g id="node43" class="node">
<title>right numeric\nexpression</title>
<ellipse fill="none" stroke="#000000" cx="436.3612" cy="-101.4156" rx="64.843" ry="29.3315"/>
<text text-anchor="middle" x="436.3612" y="-105.6156" font-family="Times,serif" font-size="14.00" fill="#000000">right numeric</text>
<text text-anchor="middle" x="436.3612" y="-88.8156" font-family="Times,serif" font-size="14.00" fill="#000000">expression</text>
</g>
<!-- &lt;&#45;&gt;right numeric\nexpression -->
<g id="edge76" class="edge">
<title>&lt;-&gt;right numeric\nexpression</title>
<path fill="none" stroke="#000000" d="M378.7157,-169.1414C386.4836,-160.0152 396.6067,-148.1219 406.198,-136.8534"/>
<polygon fill="#000000" stroke="#000000" points="408.9013,-139.0773 412.7176,-129.1937 403.5707,-134.5401 408.9013,-139.0773"/>
</g>
<!-- &lt;=&#45;&gt;right column -->
<g id="edge77" class="edge">
<title>&lt;=-&gt;right column</title>
<path fill="none" stroke="#000000" d="M210.8382,-167.9509C203.6527,-156.4243 193.9875,-140.9199 185.7949,-127.7778"/>
<polygon fill="#000000" stroke="#000000" points="188.6672,-125.7693 180.4069,-119.1347 182.7269,-129.4724 188.6672,-125.7693"/>
</g>
<!-- &lt;=&#45;&gt;right value -->
<g id="edge78" class="edge">
<title>&lt;=-&gt;right value</title>
<path fill="none" stroke="#000000" d="M235.851,-169.5316C247.3517,-157.388 263.6578,-140.1705 276.9983,-126.0844"/>
<polygon fill="#000000" stroke="#000000" points="279.7201,-128.3004 284.0552,-118.633 274.6376,-123.487 279.7201,-128.3004"/>
</g>
<!-- &lt;=&#45;&gt;right numeric\nexpression -->
<g id="edge79" class="edge">
<title>&lt;=-&gt;right numeric\nexpression</title>
<path fill="none" stroke="#000000" d="M242.8451,-173.5053C247.5725,-171.178 252.5924,-168.8305 257.3612,-166.8313 302.8581,-147.7576 316.0924,-147.9479 362.3612,-130.8313 367.5476,-128.9126 372.92,-126.8753 378.2935,-124.8034"/>
<polygon fill="#000000" stroke="#000000" points="379.8772,-127.9429 387.9272,-121.0546 377.3386,-121.4194 379.8772,-127.9429"/>
</g>
<!-- =&#45;&gt;right column -->
<g id="edge80" class="edge">
<title>=-&gt;right column</title>
<path fill="none" stroke="#000000" d="M274.2579,-171.9804C255.2222,-159.1749 225.6046,-139.251 202.6888,-123.8354"/>
<polygon fill="#000000" stroke="#000000" points="204.5212,-120.8498 194.2703,-118.1722 200.614,-126.658 204.5212,-120.8498"/>
</g>
<!-- =&#45;&gt;right value -->
<g id="edge81" class="edge">
<title>=-&gt;right value</title>
<path fill="none" stroke="#000000" d="M294.88,-166.7313C295.7882,-155.9097 296.9616,-141.9265 297.9896,-129.6763"/>
<polygon fill="#000000" stroke="#000000" points="301.4966,-129.738 298.8452,-119.4803 294.5212,-129.1525 301.4966,-129.738"/>
</g>
<!-- =&#45;&gt;right numeric\nexpression -->
<g id="edge82" class="edge">
<title>=-&gt;right numeric\nexpression</title>
<path fill="none" stroke="#000000" d="M313.8496,-172.8799C333.0546,-161.677 362.5051,-144.4978 387.718,-129.7905"/>
<polygon fill="#000000" stroke="#000000" points="389.5613,-132.7672 396.4356,-124.7053 386.0342,-126.7207 389.5613,-132.7672"/>
</g>
<!-- right column&#45;&gt;EXIT -->
<g id="edge84" class="edge">
<title>right column-&gt;EXIT</title>
<path fill="none" stroke="#000000" d="M183.146,-83.7253C192.378,-71.8777 204.6664,-56.1077 214.8922,-42.9849"/>
<polygon fill="#000000" stroke="#000000" points="217.8754,-44.8507 221.2612,-34.8114 212.3538,-40.5481 217.8754,-44.8507"/>
</g>
<!-- right value&#45;&gt;EXIT -->
<g id="edge85" class="edge">
<title>right value-&gt;EXIT</title>
<path fill="none" stroke="#000000" d="M286.3642,-83.7253C276.9281,-71.7992 264.3473,-55.8987 253.9237,-42.7245"/>
<polygon fill="#000000" stroke="#000000" points="256.3897,-40.2006 247.4401,-34.5301 250.9002,-44.544 256.3897,-40.2006"/>
</g>
<!-- right numeric\nexpression&#45;&gt;EXIT -->
<g id="edge86" class="edge">
<title>right numeric\nexpression-&gt;EXIT</title>
<path fill="none" stroke="#000000" d="M388.2338,-81.5415C352.0658,-66.606 303.3004,-46.4684 270.4427,-32.8998"/>
<polygon fill="#000000" stroke="#000000" points="271.3666,-29.4947 260.7878,-28.9128 268.6948,-35.9648 271.3666,-29.4947"/>
</g>
</g>
</svg>